<svg width="332" height="249" viewBox="0 0 332 249" fill="none" xmlns="http://www.w3.org/2000/svg">
<g clip-path="url(#clip0_2_835)">
<path d="M307.598 153.862C307.651 187.898 296.373 220.981 275.542 247.891H32.0552C11.2252 220.981 -0.0533236 187.897 -8.70564e-05 153.862C-8.70564e-05 68.8837 68.8604 0 153.802 0C238.744 0 307.598 68.8837 307.598 153.862Z" fill="#313E55"/>
<path opacity="0.1" d="M307.598 153.862C307.651 187.898 296.373 220.981 275.542 247.891H32.0552C11.2252 220.981 -0.0533236 187.897 -8.70564e-05 153.862C-8.70564e-05 68.8837 68.8604 0 153.802 0C238.744 0 307.598 68.8837 307.598 153.862Z" fill="#31A7EA"/>
<path d="M310.025 1.96765H188.009C176.108 1.96765 166.46 11.6196 166.46 23.5259V23.5263C166.46 35.4326 176.108 45.0846 188.009 45.0846H310.025C321.926 45.0846 331.574 35.4326 331.574 23.5263V23.5259C331.574 11.6196 321.926 1.96765 310.025 1.96765Z" fill="#313E55"/>
<path d="M310.025 45.5101H188.009C182.199 45.4829 176.636 43.1547 172.537 39.0348C168.439 34.915 166.138 29.3388 166.138 23.5261C166.138 17.7134 168.439 12.1372 172.537 8.0174C176.636 3.89756 182.199 1.56937 188.009 1.54211H310.025C312.92 1.52853 315.788 2.08714 318.466 3.18585C321.144 4.28457 323.579 5.90174 325.63 7.9445C327.682 9.98725 329.31 12.4153 330.42 15.0893C331.531 17.7633 332.103 20.6304 332.103 23.5261C332.103 26.4218 331.531 29.289 330.42 31.9629C329.31 34.6369 327.682 37.065 325.63 39.1077C323.579 41.1505 321.144 42.7677 318.466 43.8664C315.788 44.9651 312.92 45.5237 310.025 45.5101ZM188.009 2.3932C182.407 2.3932 177.034 4.61962 173.073 8.58268C169.112 12.5457 166.886 17.9208 166.886 23.5254C166.886 29.13 169.112 34.505 173.073 38.4681C177.034 42.4312 182.407 44.6576 188.009 44.6576H310.025C315.627 44.6576 321 42.4312 324.962 38.4681C328.923 34.505 331.148 29.13 331.148 23.5254C331.148 17.9208 328.923 12.5457 324.962 8.58268C321 4.61962 315.627 2.3932 310.025 2.3932H188.009Z" fill="#28333F"/>
<path d="M88.0481 50.9382C88.0481 50.9382 86.7348 66.4958 83.1318 72.0849C72.7593 88.1749 69.5136 106.425 79.4428 116.166C89.3721 125.906 153.779 127.18 159.049 105.274C163.485 86.8315 154.704 84.6844 152.83 69.3721C151.982 62.4439 149.569 47.9048 149.569 47.9048" fill="#28333F"/>
<path d="M143.006 101.522C142.894 101.508 141.66 121.992 117.874 120.206C101.406 118.972 95.535 101.492 95.1555 101.492C96.9309 101.114 99.921 100.566 100.709 100.145C103.303 98.7506 106.51 97.3004 107.346 92.2625C107.83 89.3611 107.011 74.5047 107.263 71.5656L132.54 77.2098C132.187 83.4141 129.715 97.798 138.379 100.344C139.822 100.768 141.375 101.154 143.006 101.522Z" fill="#E98862"/>
<path opacity="0.5" d="M132.896 94.4681C132.5 93.1916 132.245 91.8755 132.136 90.5434C131.858 87.5035 131.913 84.4423 132.301 81.4145C127.164 80.7207 122.324 78.5993 118.332 75.2915C117.863 77.0256 115.281 84.6032 115.996 86.2512C117.346 89.3645 123.693 94.4681 132.896 94.4681Z" fill="#28333F"/>
<path d="M129.296 88.084C119.315 88.8717 106.493 84.6554 104.058 71.333L101.86 59.3123C99.4246 45.9898 104.444 33.9101 116.983 31.6161C129.521 29.322 140.867 38.4069 143.303 51.7294L144.275 57.0516C145.21 62.1634 147.105 86.6782 129.296 88.084Z" fill="#E98862"/>
<path d="M133.371 69.6579L133.395 69.654C133.903 69.5573 134.405 69.4327 134.9 69.2807C135.638 69.0481 136.604 68.6622 136.483 67.9958C136.344 67.2366 132.768 59.4269 132.362 58.5386C132.324 58.4639 132.259 58.4067 132.18 58.379C132.102 58.3513 132.015 58.3553 131.939 58.3901C131.864 58.4249 131.804 58.4878 131.774 58.5656C131.743 58.6434 131.744 58.7299 131.777 58.807C133.302 62.133 135.757 67.6008 135.85 68.1119C135.766 68.3479 134.541 68.7889 133.28 69.021C133.199 69.0368 133.127 69.0831 133.079 69.1504C133.031 69.2177 133.011 69.3009 133.022 69.3827C133.034 69.4645 133.077 69.5387 133.142 69.5899C133.206 69.6411 133.289 69.6655 133.371 69.6579Z" fill="#28333F"/>
<path d="M131.481 75.3916C133.526 75.1387 135.482 74.4087 137.193 73.2605C137.264 73.2144 137.315 73.1417 137.333 73.0583C137.351 72.975 137.335 72.8878 137.289 72.8161C137.243 72.7443 137.171 72.6938 137.087 72.6757C137.004 72.6576 136.917 72.6733 136.845 72.7194C133.144 75.0995 129.478 75.4661 126.244 73.7784C126.179 73.7424 126.111 73.7101 126.042 73.6817C125.962 73.6523 125.874 73.6558 125.797 73.6917C125.719 73.7275 125.659 73.7926 125.63 73.8727C125.6 73.9528 125.604 74.0413 125.64 74.1187C125.675 74.1962 125.741 74.2562 125.821 74.2857C125.846 74.2963 125.888 74.319 125.947 74.35C127.647 75.2402 129.574 75.6029 131.481 75.3916Z" fill="#28333F"/>
<path d="M91.8155 63.4352L103.055 61.4448C111.578 58.0555 114.24 43.3461 114.24 43.3461C114.24 43.3461 124.506 53.4794 149.569 47.9062C149.569 47.9062 144.765 12.9569 107.728 22.8827C95.7854 26.083 87.1549 38.05 88.1221 54.1216C88.7998 65.3826 91.8155 63.4352 91.8155 63.4352Z" fill="#28333F"/>
<path d="M105.578 75.2494C101.768 75.9467 97.9334 72.4336 97.2364 68.6216C96.5394 64.8096 99.2443 62.1417 103.055 61.4449L105.485 63.6398L108.854 74.6498L105.578 75.2494Z" fill="#E98862"/>
<path d="M135.163 52.4117C136.124 51.7568 137.242 51.3682 138.402 51.2854C138.985 51.24 139.571 51.2827 140.142 51.4121C140.717 51.5402 141.274 51.7401 141.8 52.0069L141.816 52.0147C141.874 52.0409 141.94 52.0435 142 52.0219C142.061 52.0003 142.11 51.9562 142.138 51.8989C142.166 51.8416 142.171 51.7756 142.151 51.7148C142.132 51.654 142.089 51.6032 142.033 51.5732C141.477 51.2664 140.884 51.031 140.269 50.8725C139.649 50.7103 139.009 50.6422 138.369 50.6703C137.073 50.7191 135.813 51.115 134.722 51.8169C134.682 51.8435 134.647 51.8778 134.619 51.9179C134.592 51.9581 134.573 52.0032 134.563 52.0507C134.553 52.0982 134.553 52.1472 134.562 52.1948C134.571 52.2425 134.589 52.2879 134.616 52.3285C134.642 52.3691 134.677 52.404 134.717 52.4313C134.757 52.4586 134.802 52.4778 134.85 52.4877C134.897 52.4975 134.946 52.498 134.994 52.4889C135.041 52.4799 135.087 52.4615 135.127 52.4349L135.136 52.4291L135.163 52.4117Z" fill="#28333F"/>
<path d="M124.907 53.6448C123.639 53.3693 122.32 53.4391 121.088 53.8469C120.479 54.0446 119.903 54.3327 119.379 54.7014C118.858 55.0649 118.385 55.4929 117.971 55.9751C117.949 55.9986 117.931 56.0263 117.92 56.0565C117.908 56.0867 117.903 56.1189 117.904 56.1512C117.905 56.2165 117.933 56.2784 117.98 56.3233C118.028 56.3682 118.091 56.3924 118.156 56.3906C118.222 56.3888 118.284 56.3611 118.328 56.3136L118.342 56.3001C118.74 55.8661 119.192 55.4842 119.687 55.1632C120.176 54.8418 120.71 54.5962 121.273 54.4349C122.39 54.1058 123.574 54.0786 124.705 54.3561L124.733 54.3634C124.827 54.3881 124.928 54.3742 125.013 54.3246C125.097 54.2751 125.159 54.1939 125.183 54.0991C125.208 54.0043 125.194 53.9035 125.145 53.8189C125.095 53.7343 125.014 53.6729 124.919 53.6482L124.907 53.6448Z" fill="#28333F"/>
<path d="M131.897 78.4154C132.267 78.3756 132.633 78.3043 132.992 78.2021C133.074 78.179 133.143 78.1243 133.185 78.0499C133.227 77.9754 133.237 77.8875 133.214 77.8053C133.191 77.7232 133.137 77.6536 133.062 77.6118C132.988 77.5701 132.9 77.5596 132.818 77.5827C130.662 78.1891 129.442 77.3607 129.391 77.3249C129.322 77.2755 129.235 77.2557 129.151 77.2699C129.067 77.2841 128.992 77.3311 128.943 77.4006C128.893 77.4701 128.874 77.5564 128.888 77.6405C128.902 77.7246 128.949 77.7997 129.019 77.8491C129.884 78.365 130.901 78.5651 131.897 78.4154Z" fill="#28333F"/>
<path d="M103.065 61.2611C110.644 58.5917 113.235 53.4335 114.073 49.576C114.616 47.0032 114.616 44.3453 114.073 41.7726L113.839 41.8325C114.374 44.3718 114.372 46.9948 113.834 49.5334C113.007 53.3276 110.451 58.4022 102.984 61.0338L103.065 61.2611Z" fill="#28333F"/>
<path opacity="0.1" d="M123.271 70.5744C124.914 70.4077 126.148 69.2951 126.025 68.0893C125.903 66.8835 124.472 66.0412 122.829 66.2078C121.186 66.3745 119.953 67.4871 120.075 68.6929C120.197 69.8987 121.628 70.741 123.271 70.5744Z" fill="#28333F"/>
<path opacity="0.1" d="M140.683 66.0722C140.808 67.2763 142.239 68.1177 143.882 67.9533C144.166 67.9243 144.447 67.8659 144.719 67.7792C144.82 66.3478 144.849 64.9696 144.83 63.693C144.377 63.571 143.904 63.535 143.438 63.5866C141.794 63.751 140.562 64.8632 140.683 66.0722Z" fill="#28333F"/>
<path d="M68.2848 223.231L65.4306 248.516H168.918L167.322 223.072L68.2848 223.231Z" fill="#28333F"/>
<path d="M117.328 115.115C100.849 114.339 100.155 100.345 100.155 100.345C100.155 100.345 91.9905 100.874 86.5623 101.608C77.6761 102.811 68.2558 105.864 63.9805 113.255C60.9073 118.57 60.1672 119.532 62.963 149.523C64.9873 171.238 68.2848 223.232 68.2848 223.232L167.322 223.073C167.322 223.073 171.73 156.396 172.561 146.62C174.148 127.959 176.653 101.657 171.336 100.344C165.141 98.8149 144.921 101.33 138.381 100.344C138.271 100.33 139.769 116.174 117.328 115.115Z" fill="#31A7EA"/>
<path d="M292.852 41.9713C292.996 41.6458 293.205 41.3531 293.466 41.1111C293.727 40.8691 294.034 40.6828 294.37 40.5636C294.705 40.4444 295.061 40.3948 295.416 40.4178C295.771 40.4409 296.118 40.5361 296.435 40.6976C297.038 41.0314 297.492 41.5818 297.705 42.2376C297.918 42.8934 297.874 43.6055 297.582 44.2301L296.148 47.4657L305.356 39.3315C306.364 38.4093 308.19 37.9223 309.15 39.1216C309.549 39.559 309.788 40.1187 309.828 40.7094C309.868 41.3002 309.706 41.887 309.37 42.3741C309.382 42.3818 309.393 42.3909 309.403 42.4012C309.409 42.4096 309.414 42.4183 309.418 42.4273L310.973 41.0051C311.259 40.7436 311.6 40.5488 311.97 40.4348C312.341 40.3208 312.732 40.2905 313.116 40.346C313.5 40.4015 313.866 40.5414 314.189 40.7558C314.512 40.9701 314.784 41.2534 314.985 41.5854C315.293 42.1219 315.407 42.7486 315.307 43.3593C315.207 43.9701 314.898 44.5275 314.435 44.9371L313.773 45.542C313.782 45.5701 313.786 45.5996 313.784 45.6291C314.321 45.3264 314.946 45.2224 315.551 45.3355C316.156 45.4485 316.702 45.7713 317.093 46.2471C317.511 46.7949 317.706 47.4813 317.638 48.1674C317.57 48.8536 317.244 49.4882 316.726 49.943L315.101 51.4305C315.139 51.4256 315.178 51.4299 315.214 51.443C315.25 51.4562 315.282 51.4777 315.308 51.5059C315.338 51.5409 315.357 51.5838 315.362 51.6292C315.905 51.4951 316.476 51.5382 316.993 51.7522C317.509 51.9662 317.944 52.34 318.233 52.8188C318.541 53.3553 318.655 53.982 318.555 54.5928C318.455 55.2036 318.147 55.7609 317.683 56.1705L303.823 68.8542C301.884 70.6284 299.46 71.7828 296.86 72.1695C294.261 72.5562 291.606 72.1574 289.234 71.0244L281.6 67.3764L292.852 41.9713Z" fill="#E98862"/>
<g opacity="0.2">
<path opacity="0.2" d="M300.299 50.4725C300.342 50.5191 300.401 50.5469 300.464 50.55C300.528 50.553 300.59 50.5311 300.637 50.489L309.383 42.7426C309.407 42.7215 309.426 42.696 309.44 42.6675C309.454 42.6389 309.462 42.6079 309.464 42.5762C309.466 42.5445 309.462 42.5127 309.451 42.4827C309.441 42.4527 309.425 42.425 309.404 42.4012C309.383 42.3774 309.357 42.358 309.329 42.3441C309.3 42.3302 309.269 42.322 309.237 42.3201C309.206 42.3182 309.174 42.3225 309.144 42.3328C309.114 42.3432 309.086 42.3593 309.062 42.3804L300.314 50.1273C300.29 50.1483 300.27 50.1739 300.257 50.2025C300.243 50.231 300.235 50.262 300.233 50.2937C300.231 50.3254 300.235 50.3572 300.246 50.3872C300.256 50.4172 300.272 50.4449 300.293 50.4687L300.299 50.4725Z" fill="#28333F"/>
</g>
<g opacity="0.2">
<path opacity="0.2" d="M303.608 54.4258C303.651 54.4724 303.71 54.5003 303.773 54.5035C303.837 54.5066 303.899 54.4848 303.946 54.4427L313.707 45.7969C313.73 45.7758 313.75 45.7503 313.764 45.7217C313.778 45.6932 313.786 45.6622 313.788 45.6305C313.79 45.5988 313.785 45.567 313.775 45.537C313.765 45.5069 313.748 45.4792 313.727 45.4555C313.684 45.4093 313.624 45.3816 313.561 45.3778C313.497 45.374 313.435 45.3945 313.386 45.4351L303.625 54.0805C303.601 54.1016 303.582 54.1271 303.568 54.1557C303.554 54.1842 303.546 54.2153 303.544 54.247C303.542 54.2787 303.547 54.3104 303.557 54.3405C303.568 54.3705 303.584 54.3981 303.605 54.4219L303.608 54.4258Z" fill="#28333F"/>
</g>
<g opacity="0.2">
<path opacity="0.2" d="M307.166 58.7281C307.209 58.7747 307.269 58.8026 307.332 58.8058C307.395 58.809 307.457 58.7871 307.505 58.745L315.291 51.8488C315.339 51.8062 315.368 51.7463 315.372 51.6822C315.376 51.6181 315.354 51.5552 315.312 51.5071C315.269 51.4591 315.209 51.43 315.145 51.4261C315.081 51.4222 315.018 51.444 314.97 51.4866L307.184 58.3828C307.16 58.4039 307.141 58.4294 307.127 58.4579C307.113 58.4865 307.105 58.5175 307.103 58.5492C307.101 58.5809 307.105 58.6127 307.116 58.6427C307.126 58.6728 307.142 58.7005 307.163 58.7242L307.166 58.7281Z" fill="#28333F"/>
</g>
<path d="M284.025 50.9382L231.539 93.9517L158.884 100.509C154.225 100.9 149.897 103.076 146.804 106.584C143.711 110.093 142.093 114.661 142.288 119.334C142.482 124.008 144.474 128.425 147.848 131.664C151.222 134.903 155.716 136.712 160.391 136.714C160.904 136.714 161.419 136.692 161.938 136.648L240.296 129.608C244.007 129.294 247.532 127.843 250.39 125.454L305.358 76.6678L284.025 50.9382Z" fill="#31A7EA"/>
<path d="M295.665 48.6741L297.582 44.2301C297.874 43.6055 297.918 42.8934 297.705 42.2376C297.492 41.5818 297.038 41.0314 296.435 40.6976C296.118 40.5361 295.771 40.4409 295.416 40.4178C295.061 40.3948 294.705 40.4444 294.37 40.5636C294.034 40.6828 293.727 40.8691 293.466 41.1111C293.205 41.3531 292.996 41.6458 292.852 41.9713" fill="#E98862"/>
<path d="M158.633 182.023C158.58 182.71 158.269 183.351 157.761 183.817C157.253 184.283 156.587 184.538 155.898 184.53L153.696 184.557C153.727 184.579 153.753 184.607 153.771 184.641C153.789 184.675 153.798 184.712 153.798 184.75C153.799 184.797 153.785 184.842 153.758 184.879C154.252 185.142 154.649 185.555 154.891 186.059C155.133 186.564 155.208 187.132 155.103 187.682C154.974 188.287 154.641 188.83 154.159 189.218C153.677 189.606 153.076 189.817 152.457 189.813L133.679 190.016C131.051 190.047 128.474 189.291 126.279 187.845C124.084 186.4 122.371 184.331 121.36 181.905L118.096 174.092L128.09 171.965L128.329 169.472L143.418 162.663C143.742 162.517 144.093 162.438 144.449 162.431C144.804 162.425 145.158 162.491 145.487 162.626C145.816 162.76 146.115 162.961 146.364 163.215C146.613 163.469 146.808 163.771 146.937 164.102C147.164 164.753 147.136 165.466 146.858 166.097C146.58 166.728 146.073 167.23 145.439 167.501L142.212 168.956L154.496 169.039C155.864 169.023 157.549 169.878 157.464 171.408C157.471 172 157.277 172.578 156.914 173.045C156.55 173.513 156.039 173.843 155.463 173.983C155.463 173.998 155.466 174.008 155.467 174.024L155.46 174.051L157.566 174.029C157.954 174.025 158.339 174.106 158.691 174.269C159.044 174.431 159.357 174.67 159.606 174.968C159.855 175.266 160.035 175.615 160.132 175.991C160.23 176.367 160.243 176.76 160.17 177.142C160.043 177.747 159.711 178.289 159.229 178.677C158.748 179.065 158.148 179.274 157.53 179.27L156.629 179.283C156.617 179.307 156.602 179.329 156.585 179.351C157.186 179.485 157.72 179.826 158.094 180.314C158.469 180.803 158.659 181.408 158.633 182.023Z" fill="#E98862"/>
<g opacity="0.2">
<path opacity="0.2" d="M143.301 173.967C143.302 174.03 143.328 174.09 143.373 174.135C143.419 174.179 143.479 174.204 143.543 174.204L155.224 174.265C155.288 174.265 155.35 174.24 155.395 174.194C155.44 174.149 155.466 174.087 155.466 174.023C155.466 173.959 155.44 173.898 155.395 173.852C155.35 173.807 155.288 173.781 155.224 173.781L143.543 173.721C143.479 173.721 143.417 173.746 143.372 173.791C143.326 173.837 143.301 173.898 143.301 173.962V173.967Z" fill="#28333F"/>
</g>
<g opacity="0.2">
<path opacity="0.2" d="M143.132 179.12C143.133 179.184 143.159 179.244 143.204 179.288C143.249 179.333 143.31 179.358 143.374 179.358L156.41 179.426C156.474 179.426 156.535 179.4 156.581 179.355C156.626 179.31 156.652 179.248 156.652 179.184C156.649 179.121 156.623 179.06 156.578 179.015C156.534 178.97 156.473 178.944 156.41 178.942L143.374 178.874C143.309 178.874 143.248 178.9 143.203 178.945C143.157 178.991 143.132 179.052 143.132 179.116V179.12Z" fill="#28333F"/>
</g>
<g opacity="0.2">
<path opacity="0.2" d="M142.917 184.701C142.918 184.764 142.944 184.824 142.989 184.869C143.034 184.913 143.095 184.938 143.158 184.938L153.557 184.992C153.621 184.992 153.683 184.967 153.728 184.921C153.773 184.876 153.799 184.815 153.799 184.75C153.799 184.686 153.773 184.625 153.728 184.579C153.683 184.534 153.621 184.509 153.557 184.509L143.158 184.454C143.094 184.454 143.033 184.48 142.988 184.525C142.942 184.571 142.917 184.632 142.917 184.696V184.701Z" fill="#28333F"/>
</g>
<path d="M132.709 195.608L54.0822 209.62C50.7788 210.497 47.2949 210.422 44.0324 209.404C40.7699 208.385 37.8616 206.465 35.6432 203.864C33.4248 201.263 31.9867 198.087 31.4946 194.704C31.0026 191.32 31.4768 187.866 32.8625 184.741L61.4965 118.104C65.5567 108.949 75.5919 104.82 84.7414 108.882C89.1357 110.832 92.5756 114.448 94.3044 118.936C96.0333 123.424 95.9094 128.414 93.9602 132.811L77.1449 172.688L129.729 165.698L132.709 195.608Z" fill="#31A7EA"/>
<path d="M67.6323 207.539C67.6549 207.539 67.6774 207.536 67.699 207.53L132.775 195.841C132.836 195.823 132.887 195.783 132.918 195.728C132.949 195.673 132.958 195.609 132.942 195.548L129.963 164.67C129.947 164.608 129.908 164.556 129.854 164.523C129.799 164.49 129.735 164.48 129.673 164.495L77.5799 172.339L94.1743 132.915C94.1983 132.858 94.1995 132.794 94.1775 132.736C94.1556 132.678 94.1122 132.63 94.0563 132.603C94.0004 132.577 93.9364 132.572 93.8774 132.591C93.8184 132.61 93.7689 132.651 93.7393 132.706L76.9274 172.583C76.9081 172.624 76.9008 172.67 76.9062 172.715C76.9116 172.76 76.9295 172.802 76.9579 172.838C76.9864 172.873 77.0241 172.9 77.0669 172.914C77.1097 172.929 77.1558 172.932 77.2 172.922L129.555 165.017L132.415 195.439L67.5651 207.066C67.5089 207.082 67.4604 207.118 67.4285 207.167C67.3966 207.216 67.3836 207.275 67.3918 207.333C67.4 207.391 67.4289 207.444 67.4731 207.482C67.5173 207.52 67.5739 207.541 67.6323 207.541V207.539Z" fill="#28333F"/>
<path d="M70.6374 173.8C70.6546 173.8 70.6718 173.798 70.6886 173.794L77.1971 172.924C77.2284 172.917 77.2581 172.905 77.2844 172.886C77.3108 172.868 77.3333 172.845 77.3507 172.819C77.3681 172.792 77.38 172.762 77.3858 172.73C77.3915 172.699 77.391 172.667 77.3841 172.635C77.3773 172.604 77.3644 172.575 77.3461 172.548C77.3278 172.522 77.3045 172.5 77.2776 172.483C77.2506 172.466 77.2205 172.454 77.189 172.449C77.1575 172.443 77.1253 172.444 77.0941 172.451L70.5857 173.322C70.5276 173.335 70.4764 173.368 70.4418 173.417C70.4072 173.465 70.3916 173.525 70.398 173.584C70.4044 173.643 70.4324 173.697 70.4765 173.737C70.5207 173.777 70.5779 173.799 70.6374 173.799V173.8Z" fill="#28333F"/>
<path d="M173.482 135.913C173.543 135.913 173.602 135.89 173.646 135.849C173.691 135.807 173.719 135.751 173.723 135.69L174.8 121.744C174.805 121.68 174.785 121.617 174.743 121.568C174.701 121.519 174.641 121.489 174.577 121.484C174.513 121.479 174.45 121.5 174.401 121.541C174.352 121.583 174.322 121.643 174.317 121.707L173.24 135.653C173.235 135.717 173.256 135.78 173.298 135.828C173.339 135.877 173.399 135.907 173.462 135.912C173.469 135.913 173.475 135.913 173.482 135.913Z" fill="#28333F"/>
<path d="M140.533 56.9863C141.4 56.9863 142.103 56.2831 142.103 55.4156C142.103 54.5482 141.4 53.845 140.533 53.845C139.666 53.845 138.963 54.5482 138.963 55.4156C138.963 56.2831 139.666 56.9863 140.533 56.9863Z" fill="#28333F"/>
<path d="M124.619 59.6759C125.487 59.6759 126.189 58.9727 126.189 58.1053C126.189 57.2378 125.487 56.5346 124.619 56.5346C123.752 56.5346 123.049 57.2378 123.049 58.1053C123.049 58.9727 123.752 59.6759 124.619 59.6759Z" fill="#28333F"/>
<path d="M29.0599 249H278.538C278.666 249 278.789 248.949 278.88 248.858C278.97 248.768 279.021 248.645 279.021 248.516C279.021 248.388 278.97 248.265 278.88 248.174C278.789 248.084 278.666 248.033 278.538 248.033H29.0599C28.9317 248.033 28.8087 248.084 28.7181 248.174C28.6274 248.265 28.5765 248.388 28.5765 248.516C28.5765 248.645 28.6274 248.768 28.7181 248.858C28.8087 248.949 28.9317 249 29.0599 249Z" fill="#292A2E"/>
<circle cx="194" cy="23" r="13" fill="#31A7EA"/>
<circle cx="232" cy="23" r="13" fill="#31A7EA"/>
<circle cx="270" cy="23" r="13" fill="#31A7EA"/>
<circle cx="307" cy="23" r="13" fill="#31A7EA"/>
</g>
<defs>
<clipPath id="clip0_2_835">
<rect width="332" height="249" fill="white"/>
</clipPath>
</defs>
</svg>
